<?xml version="1.0" encoding="UTF-8" standalone="no"?>
<svg
   xmlns:dc="http://purl.org/dc/elements/1.1/"
   xmlns:cc="http://creativecommons.org/ns#"
   xmlns:rdf="http://www.w3.org/1999/02/22-rdf-syntax-ns#"
   xmlns:svg="http://www.w3.org/2000/svg"
   xmlns="http://www.w3.org/2000/svg"
   xmlns:sodipodi="http://sodipodi.sourceforge.net/DTD/sodipodi-0.dtd"
   xmlns:inkscape="http://www.inkscape.org/namespaces/inkscape"
   enable-background="new 0 0 118 40"
   viewBox="0 0 118 40"
   version="1.1"
   id="svg2120"
   sodipodi:docname="logo-ecp.svg"
   inkscape:version="1.0.1 (c497b03c, 2020-09-10)">
  <metadata
     id="metadata2126">
    <rdf:RDF>
      <cc:Work
         rdf:about="">
        <dc:format>image/svg+xml</dc:format>
        <dc:type
           rdf:resource="http://purl.org/dc/dcmitype/StillImage" />
      </cc:Work>
    </rdf:RDF>
  </metadata>
  <defs
     id="defs2124" />
  <sodipodi:namedview
     pagecolor="#ffffff"
     bordercolor="#666666"
     borderopacity="1"
     objecttolerance="10"
     gridtolerance="10"
     guidetolerance="10"
     inkscape:pageopacity="0"
     inkscape:pageshadow="2"
     inkscape:window-width="1680"
     inkscape:window-height="1024"
     id="namedview2122"
     showgrid="false"
     inkscape:zoom="9.2881356"
     inkscape:cx="79.670709"
     inkscape:cy="31.443053"
     inkscape:window-x="0"
     inkscape:window-y="26"
     inkscape:window-maximized="0"
     inkscape:current-layer="svg2120" />
  <style
     type="text/css"
     id="style2276">
	.st0{fill:#FFFFFF;}
</style>
  <g
     id="twitter_G_"
     transform="matrix(0.16608625,0,0,0.16608625,-40.663819,-29.162388)">
	<path
   class="st0"
   d="m 559.4,272.3 h -67.6 c -7.5,0 -13.5,-6.1 -13.5,-13.5 0,-7.4 6.1,-13.5 13.5,-13.5 0,0 0,0 0,0 h 67.6 c 7.5,0 13.5,6.1 13.5,13.5 0,7.4 -6,13.5 -13.5,13.5 0,0 0,0 0,0 z"
   id="path2280" />

	<path
   class="st0"
   d="m 903.3,191.2 h -94.7 -4.5 c -7.5,0 -13.5,6.1 -13.5,13.5 0,0 0,0 0,0 v 106 c 0,8.7 7.1,15.8 15.8,15.8 8.7,0 15.8,-7.1 15.8,-15.8 0,0 0,0 0,0 v -20.3 h 81.2 c 27.4,0.4 49.9,-21.5 50.3,-48.9 0.4,-27.4 -21.5,-49.9 -48.9,-50.3 -0.6,-0.1 -1.1,-0.1 -1.5,0 z m -4.5,72.1 v 0 h -76.7 v -45.1 h 76.7 v 0 c 12.5,0 22.5,10.1 22.5,22.6 0,12.5 -10.1,22.5 -22.5,22.5 z"
   id="path2282" />

	<path
   class="st0"
   d="m 765.2,312.9 c 0,7.5 -6,13.5 -13.5,13.5 0,0 0,0 0,0 H 675 c -37.4,0 -67.6,-30.3 -67.6,-67.6 0,-37.3 30.3,-67.6 67.6,-67.6 h 76.7 c 7.5,-0.2 13.7,5.7 13.9,13.2 0.2,7.5 -5.7,13.7 -13.2,13.9 -0.2,0 -0.5,0 -0.7,0 h -72.2 c -22.4,0.4 -40.3,18.8 -39.9,41.2 0.3,21.9 18,39.6 39.9,39.9 h 72.2 c 7.4,0 13.5,6 13.5,13.5 z"
   id="path2284" />

	<path
   class="st0"
   d="m 591,312.9 c 0,7.5 -6,13.5 -13.5,13.5 0,0 0,0 0,0 h -90.2 c -37.4,0 -67.6,-30.3 -67.6,-67.6 0,-37.3 30.3,-67.6 67.6,-67.6 v 0 h 90.2 c 7.5,-0.2 13.7,5.7 13.9,13.2 0.2,7.5 -5.7,13.7 -13.2,13.9 -0.2,0 -0.5,0 -0.7,0 h -85.7 c -22.4,0.4 -40.3,18.8 -39.9,41.2 0.3,21.9 18,39.6 39.9,39.9 h 85.7 c 7.4,-0.1 13.5,6 13.5,13.5 0,0 0,0 0,0 z"
   id="path2286" />

	<circle
   class="st0"
   cx="320.39999"
   cy="258.79999"
   r="72.099998"
   id="circle2288" />

	<path
   class="st0"
   d="m 290.5,388 h -26.4 c 0.5,6.4 5.5,10.7 12.4,10.7 3.6,0.1 7.2,-1.3 9.6,-4 l 2.4,2.7 c -2.8,3.3 -7.2,5 -12.2,5 -9.8,0 -16.6,-6.5 -16.6,-15.6 0,-9.1 6.5,-15.6 15.4,-15.6 8.9,0 15.3,6.4 15.3,15.6 0.1,0.2 0.1,0.7 0.1,1.2 z m -26.4,-3.1 h 22.4 c -0.6,-6.2 -6.1,-10.7 -12.2,-10.1 -5.5,0.5 -9.7,4.7 -10.2,10.1 z"
   id="path2290" />

	<path
   class="st0"
   d="m 308.6,384.4 h 15.7 v 3.6 h -15.7 z"
   id="path2292" />

	<path
   class="st0"
   d="m 340.7,386.7 c 0,-9.1 6.8,-15.6 16.3,-15.6 5.3,0 9.8,2 12.4,6.1 l -3.2,2.1 c -2.1,-3 -5.6,-4.7 -9.2,-4.5 -6.9,0 -11.9,4.8 -11.9,12 0,7.2 5,11.9 11.9,11.9 3.6,0.1 7.1,-1.5 9.2,-4.5 l 3.2,2.1 c -2.5,4 -7,6 -12.4,6 -9.4,0 -16.3,-6.5 -16.3,-15.6 z"
   id="path2294" />

	<path
   class="st0"
   d="m 386.8,386.7 c 0,-9.1 6.8,-15.6 16.1,-15.6 9.3,0 16,6.5 16,15.6 0,9.1 -6.8,15.6 -16,15.6 -9.2,0 -16.1,-6.5 -16.1,-15.6 z m 27.8,0 c 0,-7.2 -5,-12 -11.7,-12 -6.7,0 -11.8,4.8 -11.8,12 0,7.2 5,11.9 11.8,11.9 6.8,0 11.7,-4.8 11.7,-11.9 z"
   id="path2296" />

	<path
   class="st0"
   d="M 492.2,384.2 V 402 h -4.3 v -17.4 c 0,-6.5 -3.4,-9.8 -9,-9.8 -6.5,0 -10.6,4.1 -10.6,11.1 V 402 H 464 v -17.4 c 0,-6.5 -3.4,-9.8 -9.1,-9.8 -6.4,0 -10.6,4.1 -10.6,11.1 V 402 h -4.2 v -30.6 h 4.1 v 5.6 c 2.2,-3.7 6.3,-5.8 11.6,-5.8 5.3,0 9.3,2.2 11.2,6.5 2.3,-4 6.8,-6.5 12.5,-6.5 7.6,-0.1 12.7,4.2 12.7,13 z"
   id="path2298" />

	<path
   class="st0"
   d="m 547.9,386.7 c 0,9.3 -6.7,15.6 -15.7,15.6 -4.8,0.2 -9.3,-2.1 -12,-6 v 17.1 h -4.3 v -42 h 4.1 v 6 c 2.6,-4.1 7,-6.3 12.2,-6.3 9,0 15.7,6.3 15.7,15.6 z m -4.3,0 c 0,-7.1 -5.1,-12 -11.8,-12 -6.7,0 -11.8,4.8 -11.8,12 0,7.2 5,11.9 11.8,11.9 6.8,0 11.8,-4.8 11.8,-11.9 z"
   id="path2300" />

	<path
   class="st0"
   d="m 585.3,371.1 v 4 c -0.4,0 -0.7,-0.1 -1,-0.1 -6.6,0 -10.6,4.1 -10.6,11.3 V 402 h -4.3 v -30.6 h 4.1 v 6 c 2,-4.1 6,-6.3 11.8,-6.3 z"
   id="path2302" />

	<path
   class="st0"
   d="m 603.9,386.7 c 0,-9.1 6.8,-15.6 16.1,-15.6 9.3,0 16,6.5 16,15.6 0,9.1 -6.8,15.6 -16,15.6 -9.2,0 -16.1,-6.5 -16.1,-15.6 z m 27.8,0 c 0,-7.2 -5,-12 -11.7,-12 -6.7,0 -11.8,4.8 -11.8,12 0,7.2 5,11.9 11.8,11.9 6.8,0 11.7,-4.8 11.7,-11.9 z"
   id="path2304" />

	<path
   class="st0"
   d="m 653,386.7 c 0,-9.1 6.8,-15.6 16.3,-15.6 5.3,0 9.8,2 12.4,6.1 l -3.2,2.1 c -2.1,-3 -5.6,-4.7 -9.2,-4.5 -6.9,0 -11.9,4.8 -11.9,12 0,7.2 5,11.9 11.9,11.9 3.6,0.1 7.1,-1.5 9.2,-4.5 l 3.2,2.1 c -2.5,4 -7,6 -12.4,6 -9.4,0 -16.3,-6.5 -16.3,-15.6 z"
   id="path2306" />

	<path
   class="st0"
   d="m 728.5,388 h -26.4 c 0.5,6.4 5.5,10.7 12.4,10.7 3.6,0.1 7.2,-1.3 9.7,-4 l 2.4,2.7 c -2.8,3.3 -7.2,5 -12.2,5 -9.8,0 -16.6,-6.5 -16.6,-15.6 0,-9.1 6.5,-15.6 15.4,-15.6 8.9,0 15.3,6.4 15.3,15.6 0.1,0.2 0,0.7 0,1.2 z m -26.4,-3.1 h 22.4 c -0.6,-6.2 -6.1,-10.7 -12.2,-10.1 -5.4,0.5 -9.7,4.7 -10.2,10.1 z"
   id="path2308" />

	<path
   class="st0"
   d="m 747.4,398.5 1.9,-3.3 c 3.3,2.3 7.2,3.5 11.2,3.4 6,0 8.5,-2 8.5,-5 0,-8 -20.5,-1.7 -20.5,-13.8 0,-5 4.4,-8.7 12.5,-8.7 4.1,0 8.5,1.1 11.2,2.9 l -1.9,3.3 c -2.8,-1.8 -6,-2.7 -9.3,-2.6 -5.7,0 -8.2,2.1 -8.2,5.1 0,8.3 20.5,2 20.5,13.8 0,5.3 -4.8,8.7 -13,8.7 -5.3,0 -10.3,-1.7 -12.9,-3.8 z"
   id="path2310" />

	<path
   class="st0"
   d="m 792.4,398.5 1.9,-3.3 c 3.3,2.3 7.2,3.5 11.2,3.4 6,0 8.5,-2 8.5,-5 0,-8 -20.5,-1.7 -20.5,-13.8 0,-5 4.4,-8.7 12.5,-8.7 4.1,0 8.5,1.1 11.2,2.9 l -1.9,3.3 c -2.8,-1.8 -6,-2.7 -9.3,-2.6 -5.7,0 -8.2,2.1 -8.2,5.1 0,8.3 20.5,2 20.5,13.8 0,5.3 -4.8,8.7 -13,8.7 -5.3,0 -10.3,-1.7 -12.9,-3.8 z"
   id="path2312" />

	<path
   class="st0"
   d="m 840.1,361.7 c 0,-1.7 1.4,-3 3.1,-2.9 0,0 0,0 0,0 1.6,-0.1 3,1.2 3.1,2.9 0,1.7 -1.4,3.1 -3.1,3.1 -1.7,0 -3.1,-1.4 -3.1,-3.1 z m 1,9.7 h 4.3 V 402 h -4.3 z"
   id="path2314" />

	<path
   class="st0"
   d="M 895.1,384.2 V 402 h -4.3 v -17.4 c 0,-6.5 -3.5,-9.8 -9.5,-9.8 -6.8,0 -11,4.1 -11,11.1 V 402 H 866 v -30.6 h 4.1 v 5.6 c 2.3,-3.7 6.5,-5.9 12,-5.9 7.8,0 13,4.3 13,13.1 z"
   id="path2316" />

	<path
   class="st0"
   d="m 940.8,371.4 v 26.9 c 0,10.5 -5.3,15.3 -15.8,15.3 -5.8,0 -11.4,-1.7 -14.7,-4.7 l 2.2,-3.1 c 3.5,2.8 7.9,4.3 12.4,4.2 8,0 11.6,-3.5 11.6,-11.1 V 395 c -2.6,3.9 -7.1,5.9 -12.3,5.9 -9,0 -15.8,-6.1 -15.8,-14.9 0,-8.8 6.8,-14.8 15.8,-14.8 5.3,0 9.8,2.1 12.5,6.1 v -5.9 z m -4.2,14.5 c 0,-6.6 -5,-11.2 -12,-11.2 -7,0 -11.9,4.5 -11.9,11.2 0,6.7 5,11.2 11.9,11.2 6.9,0 12,-4.6 12,-11.2 z"
   id="path2318" />

</g>
</svg>
