<?xml version="1.0" encoding="utf-8"?>
<!-- Generator: Adobe Illustrator 25.4.1, SVG Export Plug-In . SVG Version: 6.00 Build 0)  -->
<svg version="1.1" id="Layer_1" xmlns="http://www.w3.org/2000/svg" xmlns:xlink="http://www.w3.org/1999/xlink" x="0px" y="0px"
	 viewBox="0 0 700 80" style="enable-background:new 0 0 700 80;" xml:space="preserve">
<style type="text/css">
	.st0{fill:#95C93D;}
	.st1{fill:#FFFFFF;}
</style>
<path class="st0" d="M312.2,53.9h-34.6v-6.6h11c4.7,0,8.5-3.8,8.5-8.5s-3.8-8.5-8.5-8.5h-11v-6.6h34.6c4.7,0,8.5-3.8,8.5-8.5
	s-3.8-8.5-8.5-8.5h-31.3c-4.7,0-8.5,3.8-8.5,8.5v3.3h-3.3c-4.7,0-8.5,3.8-8.5,8.5s3.8,8.5,8.5,8.5h3.3v6.6h-3.3
	c-4.7,0-8.5,3.8-8.5,8.5s3.8,8.5,8.5,8.5h3.3v3.3c0,4.7,3.8,8.5,8.5,8.5h31.3c4.7,0,8.5-3.8,8.5-8.5S316.9,53.9,312.2,53.9z
	 M315.5,62.4c0,1.8-1.5,3.3-3.3,3.3h-31.3c-1.8,0-3.3-1.5-3.3-3.3v-3.3h34.6C314,59.1,315.5,60.6,315.5,62.4z M277.6,42.1v-6.6h11
	c1.8,0,3.3,1.5,3.3,3.3s-1.5,3.3-3.3,3.3H277.6z M277.6,18.5v-3.3c0-1.8,1.5-3.3,3.3-3.3h31.3c1.8,0,3.3,1.5,3.3,3.3
	s-1.5,3.3-3.3,3.3H277.6z M272.4,47.3v6.6h-3.3c-1.8,0-3.3-1.5-3.3-3.3s1.5-3.3,3.3-3.3H272.4z M272.4,23.7v6.6h-3.3
	c-1.8,0-3.3-1.5-3.3-3.3s1.5-3.3,3.3-3.3C269.1,23.7,272.4,23.7,272.4,23.7z"/>
<g>
	<path class="st0" d="M343.5,23.7c-4.4,0-8,1.5-10.7,4.4c-2.6,2.8-3.9,6.4-3.9,10.7s1.4,7.9,4.1,10.7c2.8,2.9,6.4,4.4,10.8,4.4
		c3.5,0,6.3-0.8,8.6-2.5c2.2-1.6,3.8-3.8,4.9-6.5l0.3-0.8h-5.9l-0.2,0.3c-1.6,3-4.1,4.4-7.6,4.4c-2.6,0-4.8-0.8-6.5-2.4
		c-1.5-1.4-2.4-3.2-2.8-5.4h23.5v-2.3c0-4.3-1.3-7.9-3.9-10.7C351.5,25.2,347.9,23.7,343.5,23.7z M334.7,36c0.4-2,1.3-3.7,2.7-5
		c1.6-1.5,3.7-2.3,6.1-2.3s4.5,0.8,6.1,2.3c1.4,1.3,2.3,3,2.7,5H334.7z"/>
	<path class="st0" d="M398.1,24.6L398.1,24.6c-2.5-1.1-5.6-1.2-8.1-0.2c-2.5,0.9-4.4,2.4-5.7,4.4c-0.9-1.5-2.1-2.6-3.4-3.5
		c-1.7-1.1-3.5-1.6-5.5-1.6c-3.3,0-6,1.2-8,3.4v-3H362v29.3h5.4V36.1c0-2.3,0.7-4.1,2.1-5.4c1.3-1.3,2.9-1.9,4.9-1.9
		c1.9,0,3.4,0.6,4.6,1.9c1.2,1.4,1.8,3.2,1.8,5.3v17.5h5.4V36.1c0-2.3,0.7-4.1,2.1-5.4c1.3-1.3,3-1.9,4.9-1.9s3.4,0.6,4.6,1.9
		c1.2,1.4,1.8,3.2,1.8,5.3v17.5h5.4V35.9c0-3.5-1.1-6.5-3.3-8.9C400.6,26,399.4,25.2,398.1,24.6z"/>
	<path class="st0" d="M423.3,23.7c-4.4,0-8,1.5-10.7,4.4c-2.6,2.8-3.9,6.4-3.9,10.7s1.4,7.9,4.1,10.7c2.8,2.9,6.4,4.4,10.8,4.4
		c3.5,0,6.3-0.8,8.6-2.5c2.2-1.6,3.8-3.8,4.9-6.5l0.3-0.8h-5.9l-0.2,0.3c-1.6,3-4.1,4.4-7.6,4.4c-2.6,0-4.8-0.8-6.5-2.4
		c-1.5-1.4-2.4-3.2-2.8-5.4h23.5v-2.3c0-4.3-1.3-7.9-3.9-10.7C431.2,25.2,427.6,23.7,423.3,23.7z M414.4,36c0.4-2,1.3-3.7,2.7-5
		c1.6-1.5,3.7-2.3,6.1-2.3s4.5,0.8,6.1,2.3c1.4,1.3,2.3,3,2.7,5H414.4z"/>
	<path class="st0" d="M452.1,24.7c-2.2,1-3.9,2.4-5,4.2v-4.8h-5.4v29.3h5.4v-13c0-3.1,0.9-5.8,2.6-8c1.8-2.3,4.1-3.4,7-3.4h1.1v-5.4
		h-0.9C455,23.7,453.4,24.1,452.1,24.7z"/>
	<path class="st0" d="M469,29.6c1.2-0.5,2.6-0.8,4.3-0.8c1.7,0,3.2,0.5,4.4,1.4c1.3,0.9,2.2,2.2,2.8,3.7l0.2,0.4h5.8l-0.2-0.8
		c-0.9-2.9-2.6-5.2-5-7c-2.5-1.8-5.5-2.7-8.9-2.7c-4.3,0-7.8,1.5-10.5,4.4c-2.6,2.8-3.9,6.4-3.9,10.7s1.3,7.9,3.9,10.7
		c2.7,2.9,6.2,4.4,10.5,4.4c3.4,0,6.4-0.9,8.9-2.7c2.4-1.8,4.1-4.1,5-7l0.2-0.8h-5.8l-0.2,0.4c-0.6,1.5-1.5,2.7-2.8,3.7
		c-1.3,0.9-2.8,1.4-4.4,1.4c-3.1,0-5.6-1-7.3-3c-1.7-1.9-2.6-4.3-2.6-7.1s0.9-5.2,2.6-7.1C466.9,30.8,467.9,30.1,469,29.6z"/>
	<path class="st0" d="M508.6,24.6c-1.4-0.5-3.1-0.8-5.1-0.8s-3.8,0.5-5.3,1.5c-1,0.7-2,1.4-2.8,2.3V12.9H490v40.6h5.4V36.7
		c0-2.3,0.8-4.3,2.3-5.8s3.4-2.2,5.6-2.2c2.1,0,3.9,0.7,5.3,2.1c1.3,1.4,2,3.4,2,5.8v16.9h5.4v-17c0-3.9-1.2-7.1-3.7-9.5
		C511.3,26,510,25.1,508.6,24.6z"/>
	<path class="st0" d="M543.5,27.6c-2.3-2.6-5.4-3.9-9.2-3.9c-4.4,0-8,1.5-10.6,4.4s-3.9,6.5-3.9,10.7s1.3,7.8,3.9,10.7
		c2.7,2.9,6.1,4.4,10.4,4.4c4,0,7.2-1.3,9.5-3.8v3.4h5.4V24.2h-5.4v3.4H543.5z M541.3,31.7c1.6,1.9,2.4,4.3,2.4,7.2
		s-0.8,5.3-2.4,7.2c-1.7,2-3.9,2.9-6.7,2.9c-2.9,0-5.1-1-6.9-2.9c-1.7-1.9-2.5-4.3-2.5-7.1c0-2.9,0.8-5.3,2.5-7.1
		c1.8-2,4-2.9,6.9-2.9C537.5,28.8,539.7,29.7,541.3,31.7z"/>
	<path class="st0" d="M573.2,24.6c-1.4-0.5-3.1-0.8-5.1-0.8s-3.8,0.5-5.3,1.5c-1,0.7-2,1.4-2.8,2.3v-3.3h-5.4v29.3h5.4V36.7
		c0-2.3,0.8-4.3,2.3-5.8s3.4-2.2,5.6-2.2c2.1,0,3.9,0.7,5.3,2.1c1.3,1.4,2,3.4,2,5.8v16.9h5.4v-17c0-3.9-1.2-7.1-3.7-9.5
		C575.9,26,574.7,25.1,573.2,24.6z"/>
	<polygon class="st0" points="593.4,14.1 588,14.1 588,24.2 582.2,24.2 582.2,29.1 588,29.1 588,53.5 593.4,53.5 593.4,29.1 
		599.9,29.1 599.9,24.2 593.4,24.2 	"/>
	<path class="st0" d="M617.6,23.7c-4,0-7.2,1.3-9.5,3.8v-3.4h-5.4v40.5h5.4V50.1c2.3,2.6,5.4,3.9,9.2,3.9c4.4,0,8-1.5,10.6-4.4
		s3.9-6.5,3.9-10.7s-1.3-7.8-3.9-10.7C625.3,25.2,621.8,23.7,617.6,23.7z M626.4,38.9c0,2.9-0.8,5.3-2.5,7.1c-1.8,2-4,3-6.9,3
		s-5.1-1-6.8-2.9c-1.6-1.9-2.4-4.3-2.4-7.2s0.8-5.3,2.4-7.2c1.7-2,3.9-2.9,6.7-2.9c2.9,0,5.1,1,6.9,2.9
		C625.6,33.6,626.4,36,626.4,38.9z"/>
	<path class="st0" d="M658,27.6c-2.3-2.6-5.4-3.9-9.2-3.9c-4.4,0-8,1.5-10.6,4.4s-3.9,6.5-3.9,10.7s1.3,7.8,3.9,10.7
		c2.7,2.9,6.1,4.4,10.4,4.4c4,0,7.2-1.3,9.5-3.8v3.4h5.4V24.2H658V27.6z M655.8,31.7c1.6,1.9,2.4,4.3,2.4,7.2s-0.8,5.3-2.4,7.2
		c-1.7,2-3.9,2.9-6.7,2.9c-2.9,0-5.1-1-6.9-2.9c-1.7-1.9-2.5-4.3-2.5-7.1c0-2.9,0.8-5.3,2.5-7.1c1.8-2,4-2.9,6.9-2.9
		C651.9,28.8,654.1,29.7,655.8,31.7z"/>
	<polygon class="st0" points="689.1,24.2 680.2,46.2 671.6,24.3 671.6,24.2 665.6,24.2 677.3,52.5 671.9,64.7 677.8,64.7 
		694.9,24.4 695,24.2 	"/>
</g>
<g>
	<path class="st1" d="M335.2,71l-0.7-2h-3.4l-0.7,2H329l3.2-8.6h1.4l3.1,8.6H335.2z M332.8,64.1l-1.3,3.7h2.5L332.8,64.1L332.8,64.1
		z"/>
	<path class="st1" d="M340.7,64.4c0.7,0,1.2,0.2,1.6,0.6s0.5,1,0.5,1.9v4h-1.4v-4c0-0.5-0.1-0.8-0.3-1s-0.5-0.3-0.9-0.3
		c-0.5,0-1,0.2-1.3,0.7V71h-1.4v-6.4h1.3l0.1,0.9C339.3,64.8,339.9,64.4,340.7,64.4z"/>
	<path class="st1" d="M352.8,70.3c-0.6,0.5-1.3,0.8-2.3,0.8c-0.9,0-1.7-0.3-2.2-0.9s-0.8-1.3-0.8-2.3v-0.2c0-0.9,0.3-1.7,0.8-2.3
		c0.5-0.6,1.2-0.9,2-0.9s1.5,0.3,1.9,0.8c0.5,0.5,0.7,1.2,0.7,2.1v0.8h-4l0,0c0,0.5,0.2,0.9,0.5,1.3c0.3,0.3,0.7,0.5,1.1,0.5
		s0.7,0,1-0.1s0.5-0.2,0.8-0.4L352.8,70.3L352.8,70.3z M351.5,67c0-0.4-0.1-0.7-0.3-1s-0.5-0.4-0.9-0.4s-0.7,0.1-0.9,0.4
		c-0.2,0.3-0.4,0.6-0.4,1.1l0,0L351.5,67L351.5,67L351.5,67z"/>
	<path class="st1" d="M359.3,66.5v0.3V71h-1.4v-3.9c0-0.5-0.1-0.9-0.3-1.1c-0.2-0.2-0.5-0.4-0.8-0.4c-0.6,0-1,0.2-1.2,0.6V71h-1.4
		v-6.4h1.3l0.1,0.8c0.4-0.6,1.1-1,1.9-1s1.4,0.4,1.7,1.1c0.4-0.8,1.1-1.1,1.9-1.1c0.7,0,1.2,0.2,1.5,0.7c0.4,0.4,0.5,1.1,0.5,2V71
		h-1.4v-3.9c0-0.5-0.1-0.9-0.3-1.1c-0.2-0.2-0.5-0.3-0.8-0.3s-0.6,0.1-0.8,0.2C359.6,66,359.4,66.3,359.3,66.5z"/>
	<path class="st1" d="M369.7,70.3c-0.6,0.5-1.3,0.8-2.3,0.8c-0.9,0-1.7-0.3-2.2-0.9s-0.8-1.3-0.8-2.3v-0.2c0-0.9,0.3-1.7,0.8-2.3
		c0.5-0.6,1.2-0.9,2-0.9s1.5,0.3,1.9,0.8c0.5,0.5,0.7,1.2,0.7,2.1v0.8h-4l0,0c0,0.5,0.2,0.9,0.5,1.3c0.3,0.3,0.7,0.5,1.1,0.5
		s0.7,0,1-0.1s0.5-0.2,0.8-0.4L369.7,70.3L369.7,70.3z M368.4,67c0-0.4-0.1-0.7-0.3-1s-0.5-0.4-0.9-0.4s-0.7,0.1-0.9,0.4
		c-0.2,0.3-0.4,0.6-0.4,1.1l0,0L368.4,67L368.4,67L368.4,67z"/>
	<path class="st1" d="M372.4,71H371v-6.4h1.3l0.1,0.9c0.3-0.7,0.9-1,1.5-1c0.2,0,0.3,0,0.4,0.1l-0.2,1.3h-0.6
		c-0.5,0-0.9,0.2-1.1,0.7L372.4,71L372.4,71z"/>
	<path class="st1" d="M376.2,67.9L376.2,67.9c0,1.4,0.5,2.1,1.5,2.1c0.4,0,0.6-0.1,0.9-0.3c0.2-0.2,0.4-0.5,0.4-0.8h1.3l0,0
		c0,0.6-0.2,1.1-0.7,1.5s-1.1,0.6-1.8,0.6c-0.9,0-1.6-0.3-2.1-0.9s-0.8-1.4-0.8-2.3v-0.2c0-1,0.3-1.7,0.8-2.3s1.2-0.9,2.1-0.9
		c0.8,0,1.4,0.2,1.9,0.7c0.5,0.4,0.7,1,0.7,1.7l0,0H379c0-0.4-0.1-0.7-0.3-0.9c-0.2-0.2-0.5-0.4-0.9-0.4c-0.5,0-0.9,0.2-1.1,0.6
		s-0.4,0.9-0.4,1.5v0.3H376.2z"/>
	<path class="st1" d="M382.8,65.4c0.5-0.6,1-0.9,1.8-0.9c0.7,0,1.3,0.2,1.6,0.6s0.6,1.1,0.6,2V71h-1.4v-3.9c0-0.5-0.1-0.9-0.3-1.1
		c-0.2-0.2-0.5-0.3-0.9-0.3c-0.6,0-1,0.2-1.3,0.7V71h-1.4v-9.2h1.4L382.8,65.4z"/>
	<path class="st1" d="M390.1,71.1c-0.7,0-1.2-0.2-1.5-0.5c-0.4-0.3-0.5-0.8-0.5-1.4s0.2-1.1,0.7-1.4s1.2-0.5,2.1-0.5h1.1v-0.6
		c0-0.3-0.1-0.6-0.3-0.8c-0.2-0.2-0.5-0.3-0.8-0.3s-0.6,0.1-0.8,0.2s-0.3,0.4-0.3,0.6h-1.4l0,0c0-0.5,0.2-1,0.7-1.4s1.1-0.6,1.9-0.6
		s1.4,0.2,1.8,0.6s0.7,0.9,0.7,1.6v2.8c0,0.5,0.1,1,0.2,1.5h-1.5c-0.1-0.3-0.2-0.6-0.2-0.9c-0.2,0.3-0.5,0.6-0.8,0.8
		C390.8,71,390.5,71.1,390.1,71.1z M389.4,69.1L389.4,69.1c0,0.2,0.1,0.4,0.2,0.6c0.2,0.1,0.4,0.2,0.7,0.2s0.6-0.1,0.9-0.3
		c0.3-0.2,0.5-0.4,0.6-0.6v-0.9h-1.1c-0.4,0-0.7,0.1-1,0.3C389.6,68.6,389.4,68.8,389.4,69.1z"/>
	<path class="st1" d="M398.1,64.4c0.7,0,1.2,0.2,1.6,0.6s0.5,1,0.5,1.9v4h-1.4v-4c0-0.5-0.1-0.8-0.3-1s-0.5-0.3-0.9-0.3
		c-0.5,0-1,0.2-1.3,0.7V71h-1.4v-6.4h1.3l0.1,0.9C396.7,64.8,397.3,64.4,398.1,64.4z"/>
	<path class="st1" d="M402,63h1.4v1.5h1.1v1.1h-1.1v3.5c0,0.5,0.2,0.7,0.6,0.7c0.2,0,0.3,0,0.4-0.1l0.2,1.1c-0.3,0.1-0.6,0.2-1,0.2
		c-1.1,0-1.7-0.6-1.7-1.9v-3.5h-1v-1.1h1V63H402z"/>
	<path class="st1" d="M411.5,68.1L411.5,68.1c0,1-0.2,1.8-0.7,2.4c-0.4,0.6-1,0.8-1.8,0.8c-0.7,0-1.3-0.3-1.7-0.8v3.1h-1.4v-8.8h1.2
		l0.1,0.8c0.4-0.6,1-0.9,1.8-0.9s1.4,0.3,1.8,0.9C411.2,66.3,411.5,67.1,411.5,68.1z M410,68.2L410,68.2c0-0.8-0.1-1.3-0.4-1.7
		s-0.6-0.6-1.1-0.6c-0.6,0-1,0.2-1.3,0.7v2.9c0.3,0.5,0.7,0.7,1.3,0.7c0.5,0,0.8-0.2,1.1-0.5C409.9,69.3,410,68.9,410,68.2z"/>
	<path class="st1" d="M414.5,71.1c-0.7,0-1.2-0.2-1.5-0.5c-0.4-0.3-0.5-0.8-0.5-1.4s0.2-1.1,0.7-1.4s1.2-0.5,2.1-0.5h1.1v-0.6
		c0-0.3-0.1-0.6-0.3-0.8c-0.2-0.2-0.5-0.3-0.8-0.3s-0.6,0.1-0.8,0.2s-0.3,0.4-0.3,0.6h-1.4l0,0c0-0.5,0.2-1,0.7-1.4s1.1-0.6,1.9-0.6
		s1.4,0.2,1.8,0.6s0.7,0.9,0.7,1.6v2.8c0,0.5,0.1,1,0.2,1.5h-1.5c-0.1-0.3-0.2-0.6-0.2-0.9c-0.2,0.3-0.5,0.6-0.8,0.8
		C415.3,71,414.9,71.1,414.5,71.1z M413.9,69.1L413.9,69.1c0,0.2,0.1,0.4,0.2,0.6c0.2,0.1,0.4,0.2,0.7,0.2s0.6-0.1,0.9-0.3
		c0.3-0.2,0.5-0.4,0.6-0.6v-0.9h-1.1c-0.4,0-0.7,0.1-1,0.3C414,68.6,413.9,68.8,413.9,69.1z"/>
	<path class="st1" d="M419.9,73.8c-0.2,0-0.4,0-0.8-0.1l0.2-1.1c0.3,0,0.4,0,0.4,0c0.4,0,0.8-0.3,1-0.9l0.2-0.6l-2.3-6.3h1.6
		l1.2,3.8l0.1,0.6l0,0l1.4-4.5h1.6l-2.6,7.3c-0.2,0.5-0.4,0.9-0.8,1.2S420.4,73.8,419.9,73.8z"/>
	<path class="st1" d="M430,67.9L430,67.9c0,1.4,0.5,2.1,1.5,2.1c0.4,0,0.6-0.1,0.9-0.3c0.2-0.2,0.4-0.5,0.4-0.8h1.3l0,0
		c0,0.6-0.2,1.1-0.7,1.5s-1.1,0.6-1.8,0.6c-0.9,0-1.6-0.3-2.1-0.9s-0.8-1.4-0.8-2.3v-0.2c0-1,0.3-1.7,0.8-2.3s1.2-0.9,2.1-0.9
		c0.8,0,1.4,0.2,1.9,0.7c0.5,0.4,0.7,1,0.7,1.7l0,0h-1.3c0-0.4-0.1-0.7-0.3-0.9c-0.2-0.2-0.5-0.4-0.9-0.4c-0.5,0-0.9,0.2-1.1,0.6
		s-0.4,0.9-0.4,1.5v0.3H430z"/>
	<path class="st1" d="M435.7,65.4c0.5-0.6,1.2-0.9,2.1-0.9s1.6,0.3,2.1,0.9s0.8,1.4,0.8,2.3v0.1c0,1-0.3,1.7-0.8,2.3
		c-0.5,0.6-1.2,0.9-2.1,0.9s-1.6-0.3-2.1-0.9s-0.8-1.4-0.8-2.3v-0.1C434.9,66.8,435.1,66,435.7,65.4z M436.3,67.9
		c0,0.6,0.1,1.1,0.4,1.5c0.2,0.4,0.6,0.6,1.1,0.6s0.9-0.2,1.1-0.6c0.3-0.4,0.4-0.9,0.4-1.5v-0.1c0-0.6-0.1-1.1-0.4-1.5
		c-0.2-0.4-0.6-0.6-1.1-0.6s-0.9,0.2-1.1,0.6S436.3,67.2,436.3,67.9L436.3,67.9z"/>
	<path class="st1" d="M447.2,66.5v0.3V71h-1.4v-3.9c0-0.5-0.1-0.9-0.3-1.1c-0.2-0.2-0.5-0.4-0.8-0.4c-0.6,0-1,0.2-1.2,0.6V71H442
		v-6.4h1.3l0.1,0.8c0.4-0.6,1.1-1,1.9-1s1.4,0.4,1.7,1.1c0.4-0.8,1.1-1.1,1.9-1.1c0.7,0,1.2,0.2,1.5,0.7c0.4,0.4,0.5,1.1,0.5,2V71
		h-1.4v-3.9c0-0.5-0.1-0.9-0.3-1.1c-0.2-0.2-0.5-0.3-0.8-0.3s-0.6,0.1-0.8,0.2C447.4,66,447.3,66.3,447.2,66.5z"/>
	<path class="st1" d="M458.1,68.1L458.1,68.1c0,1-0.2,1.8-0.7,2.4c-0.4,0.6-1,0.8-1.8,0.8c-0.7,0-1.3-0.3-1.7-0.8v3.1h-1.4v-8.8h1.2
		l0.1,0.8c0.4-0.6,1-0.9,1.8-0.9s1.4,0.3,1.8,0.9C457.9,66.3,458.1,67.1,458.1,68.1z M456.7,68.2L456.7,68.2c0-0.8-0.1-1.3-0.4-1.7
		s-0.6-0.6-1.1-0.6c-0.6,0-1,0.2-1.3,0.7v2.9c0.3,0.5,0.7,0.7,1.3,0.7c0.5,0,0.8-0.2,1.1-0.5C456.5,69.3,456.7,68.9,456.7,68.2z"/>
	<path class="st1" d="M461.1,71.1c-0.7,0-1.2-0.2-1.5-0.5c-0.4-0.3-0.5-0.8-0.5-1.4s0.2-1.1,0.7-1.4s1.2-0.5,2.1-0.5h1.1v-0.6
		c0-0.3-0.1-0.6-0.3-0.8c-0.2-0.2-0.5-0.3-0.8-0.3s-0.6,0.1-0.8,0.2s-0.3,0.4-0.3,0.6h-1.4l0,0c0-0.5,0.2-1,0.7-1.4s1.1-0.6,1.9-0.6
		s1.4,0.2,1.8,0.6s0.7,0.9,0.7,1.6v2.8c0,0.5,0.1,1,0.2,1.5h-1.5c-0.1-0.3-0.2-0.6-0.2-0.9c-0.2,0.3-0.5,0.6-0.8,0.8
		C461.9,71,461.5,71.1,461.1,71.1z M460.5,69.1L460.5,69.1c0,0.2,0.1,0.4,0.2,0.6c0.2,0.1,0.4,0.2,0.7,0.2s0.6-0.1,0.9-0.3
		c0.3-0.2,0.5-0.4,0.6-0.6v-0.9h-1.1c-0.4,0-0.7,0.1-1,0.3C460.6,68.6,460.5,68.8,460.5,69.1z"/>
	<path class="st1" d="M469.1,64.4c0.7,0,1.2,0.2,1.6,0.6s0.5,1,0.5,1.9v4h-1.4v-4c0-0.5-0.1-0.8-0.3-1s-0.5-0.3-0.9-0.3
		c-0.5,0-1,0.2-1.3,0.7V71h-1.4v-6.4h1.3l0.1,0.9C467.7,64.8,468.4,64.4,469.1,64.4z"/>
	<path class="st1" d="M473.4,73.8c-0.2,0-0.4,0-0.8-0.1l0.2-1.1c0.3,0,0.4,0,0.4,0c0.4,0,0.8-0.3,1-0.9l0.2-0.6l-2.3-6.3h1.6
		l1.2,3.8l0.1,0.6l0,0l1.4-4.5h1.6l-2.6,7.3c-0.2,0.5-0.4,0.9-0.8,1.2S473.9,73.8,473.4,73.8z"/>
</g>
<g>
	<path class="st1" d="M11.8,12v22.8H8V12H11.8z"/>
	<path class="st1" d="M34.4,12v22.8h-3.8L20.5,18.1h-0.1v16.6h-3.8V12h3.8l10.1,16.6h0.1V12H34.4z"/>
	<path class="st1" d="M50.2,31.3c0.8-0.6,1.2-1.3,1.2-2.3s-0.4-1.8-1.1-2.4c-0.7-0.6-2-1.1-3.7-1.6c-2.7-0.7-4.6-1.6-6-2.7
		c-1.3-1.1-2-2.6-2-4.4s0.8-3.3,2.3-4.5s3.5-1.8,5.9-1.8s4.4,0.7,6,2c1.5,1.3,2.3,3,2.2,4.9v0.1h-3.7c0-1.2-0.4-2.1-1.2-2.9
		c-0.8-0.7-1.9-1.1-3.3-1.1c-1.4,0-2.5,0.3-3.3,0.9c-0.8,0.6-1.1,1.4-1.1,2.3s0.4,1.7,1.2,2.2s2.1,1.1,4,1.6
		c2.5,0.7,4.4,1.6,5.6,2.8s1.9,2.7,1.9,4.5s-0.8,3.3-2.3,4.4s-3.5,1.7-6,1.7c-1.2,0-2.3-0.2-3.4-0.5c-1.1-0.3-2-0.8-2.9-1.4
		c-0.8-0.6-1.5-1.3-1.9-2.2C38.1,30,37.9,29,37.9,28v-0.1h3.7c0,1.3,0.5,2.4,1.4,3.1s2.2,1.1,3.8,1.1l0,0
		C48.4,32.1,49.4,31.9,50.2,31.3z"/>
	<path class="st1" d="M76.6,21.4v4.1c0,2.8-0.9,5.1-2.6,7c-1.8,1.8-4,2.7-6.8,2.7s-5-0.9-6.7-2.7s-2.6-4.1-2.6-7v-4.1
		c0-2.8,0.9-5.1,2.6-6.9s3.9-2.7,6.6-2.7c1.8,0,3.5,0.4,4.9,1.3c1.4,0.8,2.6,2,3.3,3.5S76.6,19.5,76.6,21.4z M72.8,25.5v-4.1
		c0-1.9-0.5-3.5-1.5-4.7s-2.4-1.8-4.1-1.8s-3,0.6-4,1.8s-1.5,2.8-1.5,4.7v4.1c0,1.9,0.5,3.5,1.5,4.7c1,1.2,2.3,1.8,4,1.8
		s3.1-0.6,4.1-1.8C72.3,29,72.8,27.4,72.8,25.5z"/>
	<path class="st1" d="M88.5,17.5c1.8,0,3.2,0.5,4.2,1.6s1.5,2.7,1.5,5v10.7h-3.8V24.2c0-1.3-0.3-2.2-0.8-2.7s-1.3-0.8-2.4-0.8
		c-1.5,0-2.6,0.6-3.4,1.8v12.3H80v-17h3.5l0.2,2.5C84.7,18.4,86.4,17.5,88.5,17.5z"/>
	<path class="st1" d="M101.8,10.3v24.4H98V10.3H101.8z"/>
	<path class="st1" d="M109.7,10.3v3.3h-3.8v-3.3H109.7z M109.7,17.8v17h-3.8v-17H109.7z"/>
	<path class="st1" d="M122.2,17.5c1.8,0,3.2,0.5,4.2,1.6s1.5,2.7,1.5,5v10.7H124V24.2c0-1.3-0.3-2.2-0.8-2.7s-1.3-0.8-2.4-0.8
		c-1.5,0-2.6,0.6-3.4,1.8v12.3h-3.8v-17h3.5l0.2,2.5C118.5,18.4,120.1,17.5,122.2,17.5z"/>
	<path class="st1" d="M144.9,33.1c-1.5,1.3-3.6,2-6.1,2s-4.5-0.8-5.9-2.3c-1.4-1.6-2.1-3.6-2.1-6.1v-0.6c0-2.5,0.7-4.5,2.1-6.2
		s3.2-2.4,5.4-2.4s3.9,0.7,5.1,2.1s1.8,3.2,1.8,5.6v2.2h-10.6v0.1c0.1,1.4,0.5,2.5,1.2,3.3s1.7,1.3,3,1.3c1,0,1.9-0.1,2.6-0.3
		c0.7-0.2,1.4-0.6,2.2-1.1L144.9,33.1L144.9,33.1z M141.6,24.2c0-1.1-0.3-2-0.8-2.6s-1.3-1-2.3-1s-1.8,0.4-2.4,1.1
		c-0.6,0.7-1,1.7-1.1,2.9v0.1h6.7L141.6,24.2L141.6,24.2z"/>
	<path class="st1" d="M161.3,12v22.8h-3.8V12H161.3z"/>
	<path class="st1" d="M174.2,17.5c1.8,0,3.2,0.5,4.2,1.6s1.5,2.7,1.5,5v10.7H176V24.2c0-1.3-0.3-2.2-0.8-2.7s-1.3-0.8-2.4-0.8
		c-1.5,0-2.6,0.6-3.4,1.8v12.3h-3.8v-17h3.5l0.2,2.5C170.5,18.4,172.1,17.5,174.2,17.5z"/>
	<path class="st1" d="M182.7,26.9v-0.3c0-2.7,0.6-4.9,1.7-6.6s2.8-2.5,4.9-2.5c1.8,0,3.3,0.7,4.4,2.2v-9.3h3.8v24.4h-3.2l-0.4-2.1
		c-1.1,1.6-2.7,2.4-4.7,2.4s-3.6-0.7-4.8-2.2C183.3,31.4,182.7,29.4,182.7,26.9z M186.5,26.6v0.3c0,1.6,0.3,2.9,0.9,3.8
		c0.6,0.9,1.6,1.3,2.8,1.3c1.5,0,2.7-0.7,3.4-2v-7.4c-0.8-1.3-1.9-2-3.4-2c-1.3,0-2.2,0.5-2.8,1.6C186.8,23.3,186.5,24.7,186.5,26.6
		z"/>
	<path class="st1" d="M205.3,10.3v3.3h-3.8v-3.3H205.3z M205.3,17.8v17h-3.8v-17H205.3z"/>
	<path class="st1" d="M214,35.1c-1.8,0-3.1-0.4-4.1-1.3c-1-0.9-1.4-2.2-1.4-3.8s0.6-2.9,1.9-3.8c1.3-0.9,3.1-1.4,5.5-1.4h3v-1.5
		c0-0.9-0.3-1.6-0.8-2.1s-1.2-0.7-2.2-0.7c-0.9,0-1.6,0.2-2.2,0.6c-0.5,0.4-0.8,1-0.8,1.6h-3.7v-0.1c-0.1-1.4,0.5-2.6,1.8-3.6
		s2.9-1.5,5-1.5c2,0,3.6,0.5,4.8,1.5s1.8,2.5,1.8,4.3v7.5c0,1.4,0.2,2.7,0.6,3.9h-3.9c-0.3-0.9-0.5-1.7-0.5-2.5
		c-0.6,0.8-1.3,1.5-2.1,2S215,35.1,214,35.1z M212.3,30L212.3,30c0,0.7,0.2,1.2,0.7,1.5c0.4,0.4,1.1,0.6,1.9,0.6s1.7-0.2,2.4-0.7
		c0.8-0.5,1.3-1,1.5-1.7v-2.5h-3c-1.1,0-1.9,0.3-2.6,0.8S212.3,29.2,212.3,30z"/>
	<path class="st1" d="M16.4,63.1h-5.1v8.7H7.5V48.9h8.9c2.5,0,4.5,0.6,5.9,1.9c1.4,1.3,2.2,3,2.2,5.2s-0.7,3.9-2.1,5.2
		C21,62.5,19,63.1,16.4,63.1z M11.3,51.9V60h5.1c1.4,0,2.4-0.4,3.2-1.1c0.7-0.7,1.1-1.7,1.1-2.9s-0.4-2.2-1.1-2.9S17.8,52,16.4,52
		L11.3,51.9L11.3,51.9z"/>
	<path class="st1" d="M31.6,71.8h-3.8v-17h3.5l0.2,2.5c0.9-1.9,2.3-2.8,4-2.8c0.4,0,0.8,0.1,1.2,0.2l-0.5,3.6l-1.6-0.1
		c-1.5,0-2.5,0.6-3,1.8C31.6,60,31.6,71.8,31.6,71.8z"/>
	<path class="st1" d="M43,47.2v3.4h-3.8v-3.4H43z M43,54.8v17h-3.8v-17C39.2,54.8,43,54.8,43,54.8z"/>
	<path class="st1" d="M49.8,54.8L53.2,66l0.3,1.4h0.1l0.3-1.4l3.4-11.3h3.9l-6,17h-3.3l-6.1-17h4V54.8z"/>
	<path class="st1" d="M68.2,72.1c-1.8,0-3.1-0.5-4.1-1.4s-1.4-2.2-1.4-3.8c0-1.6,0.6-2.9,1.9-3.8c1.3-0.9,3.1-1.4,5.5-1.4h3v-1.5
		c0-0.9-0.3-1.6-0.8-2.1s-1.2-0.8-2.2-0.8c-0.9,0-1.6,0.2-2.2,0.6c-0.5,0.4-0.8,1-0.8,1.6h-3.7v-0.1c0-1.2,0.6-2.4,1.9-3.4
		s3-1.5,5-1.5s3.6,0.5,4.8,1.5c1.2,1,1.8,2.5,1.8,4.3v7.6c0,1.4,0.2,2.7,0.6,3.9h-3.9c-0.3-0.9-0.5-1.7-0.5-2.5
		c-0.6,0.8-1.3,1.5-2.1,2C70.2,71.9,69.2,72.1,68.2,72.1z M66.5,67L66.5,67c0,0.7,0.2,1.2,0.7,1.6c0.4,0.4,1.1,0.6,1.9,0.6
		c0.9,0,1.7-0.2,2.4-0.7c0.8-0.5,1.3-1,1.6-1.7v-2.5h-3c-1.1,0-1.9,0.3-2.6,0.8C66.8,65.5,66.5,66.2,66.5,67z"/>
	<path class="st1" d="M81.9,50.7h3.8v4.1h3.1v2.8h-3.1V67c0,1.3,0.6,2,1.7,2c0.4,0,0.8-0.1,1.2-0.2l0.4,2.8
		c-0.7,0.4-1.6,0.6-2.6,0.6c-3,0-4.5-1.7-4.5-5.1v-9.4h-2.6v-2.8h2.6V50.7z"/>
	<path class="st1" d="M105.7,70.1c-1.5,1.3-3.6,2-6.1,2s-4.5-0.8-5.9-2.3s-2.2-3.6-2.2-6.1v-0.6c0-2.5,0.7-4.6,2.1-6.2
		c1.4-1.6,3.2-2.4,5.4-2.4s3.9,0.7,5.2,2.1c1.2,1.4,1.8,3.2,1.8,5.6v2.3H95.5v0.1c0.1,1.4,0.5,2.5,1.2,3.3s1.7,1.3,3,1.3
		c1,0,1.9-0.1,2.6-0.3c0.7-0.2,1.5-0.6,2.2-1.1L105.7,70.1L105.7,70.1z M102.3,61.2c0-1.1-0.3-2-0.8-2.7c-0.6-0.7-1.4-1-2.4-1
		s-1.8,0.4-2.4,1.1c-0.6,0.7-1,1.7-1.1,2.9v0.1h6.8L102.3,61.2L102.3,61.2z"/>
	<path class="st1" d="M122.6,48.9v19.8h10.5v3.1h-14.3V48.9H122.6z"/>
	<path class="st1" d="M139.8,47.2v3.4H136v-3.4H139.8z M139.8,54.8v17H136v-17C136,54.8,139.8,54.8,139.8,54.8z"/>
	<path class="st1" d="M157.9,60v0.7v11h-3.8V61.5c0-1.4-0.2-2.4-0.7-3s-1.2-0.9-2.3-0.9c-1.5,0-2.6,0.6-3.2,1.7v12.5H144v-17h3.5
		l0.2,2.2c1.2-1.7,2.8-2.5,5.1-2.5s3.8,1,4.6,3c1.1-2,2.8-3,5.1-3c1.8,0,3.1,0.6,4.1,1.8s1.5,3,1.5,5.3v10.3h-3.8V61.5
		c0-1.4-0.2-2.4-0.7-3s-1.2-0.9-2.3-0.9c-0.8,0-1.5,0.2-2.1,0.6C158.6,58.6,158.1,59.2,157.9,60z"/>
	<path class="st1" d="M176.1,47.2v3.4h-3.8v-3.4H176.1z M176.1,54.8v17h-3.8v-17C172.3,54.8,176.1,54.8,176.1,54.8z"/>
	<path class="st1" d="M181.3,50.7h3.8v4.1h3.1v2.8h-3.1V67c0,1.3,0.6,2,1.7,2c0.4,0,0.8-0.1,1.2-0.2l0.4,2.8
		c-0.7,0.4-1.6,0.6-2.6,0.6c-3,0-4.5-1.7-4.5-5.1v-9.4h-2.6v-2.8h2.6L181.3,50.7L181.3,50.7z"/>
	<path class="st1" d="M205.1,70.1c-1.5,1.3-3.6,2-6.1,2s-4.5-0.8-5.9-2.3s-2.2-3.6-2.2-6.1v-0.6c0-2.5,0.7-4.6,2.1-6.2
		c1.4-1.6,3.2-2.4,5.4-2.4s3.9,0.7,5.2,2.1c1.2,1.4,1.8,3.2,1.8,5.6v2.3H195v0.1c0.1,1.4,0.5,2.5,1.2,3.3s1.7,1.3,3,1.3
		c1,0,1.9-0.1,2.6-0.3c0.7-0.2,1.5-0.6,2.2-1.1L205.1,70.1L205.1,70.1z M201.8,61.2c0-1.1-0.3-2-0.8-2.7c-0.6-0.7-1.4-1-2.4-1
		s-1.8,0.4-2.4,1.1c-0.6,0.7-1,1.7-1.1,2.9v0.1h6.8v-0.4H201.8z"/>
	<path class="st1" d="M208,63.9v-0.3c0-2.8,0.6-5,1.8-6.6s2.8-2.5,4.9-2.5c1.8,0,3.3,0.7,4.4,2.2v-9.4h3.8v24.5h-3.2l-0.4-2.1
		c-1.1,1.6-2.7,2.4-4.7,2.4s-3.6-0.7-4.8-2.2S208,66.4,208,63.9z M211.8,63.5v0.3c0,1.6,0.3,2.9,0.9,3.8c0.6,0.9,1.6,1.4,2.8,1.4
		c1.5,0,2.7-0.7,3.5-2v-7.4c-0.8-1.3-1.9-2-3.4-2c-1.3,0-2.2,0.5-2.9,1.6C212.1,60.3,211.8,61.7,211.8,63.5z"/>
</g>
<line class="st1" x1="246.3" y1="7.2" x2="246.3" y2="75"/>
<g>
	<path class="st1" d="M333.2,11h-1.9v3.3h-1.4V5.6h3.4c0.9,0,1.7,0.2,2.2,0.7s0.8,1.1,0.8,1.9s-0.3,1.5-0.8,1.9
		C334.9,10.7,334.2,11,333.2,11z M331.3,6.8v3h1.9c0.5,0,0.9-0.1,1.2-0.4c0.3-0.3,0.4-0.6,0.4-1.1s-0.1-0.8-0.4-1.1
		c-0.3-0.3-0.7-0.4-1.2-0.4H331.3z"/>
	<path class="st1" d="M337.9,8.7c0.5-0.6,1.2-0.9,2.1-0.9s1.6,0.3,2.1,0.9s0.8,1.4,0.8,2.3v0.1c0,1-0.3,1.7-0.8,2.3
		s-1.2,0.9-2.1,0.9s-1.6-0.3-2.1-0.9c-0.5-0.6-0.8-1.4-0.8-2.3V11C337.1,10.1,337.4,9.3,337.9,8.7z M338.6,11.1
		c0,0.6,0.1,1.1,0.4,1.5c0.2,0.4,0.6,0.6,1.1,0.6s0.9-0.2,1.1-0.6c0.3-0.4,0.4-0.9,0.4-1.5V11c0-0.6-0.1-1.1-0.4-1.5
		c-0.2-0.4-0.6-0.6-1.1-0.6s-0.9,0.2-1.1,0.6s-0.4,0.9-0.4,1.5V11.1z"/>
	<path class="st1" d="M348.5,7.8l1.3,4.5l0,0l1-4.5h1.4l-1.7,6.4h-1.2L348,9.8v0.1l-1.3,4.4h-1.2l-1.8-6.4h1.4l1,4.5l0,0l1.3-4.5
		h1.1V7.8z"/>
	<path class="st1" d="M358.4,13.6c-0.6,0.5-1.3,0.8-2.3,0.8c-0.9,0-1.7-0.3-2.2-0.9c-0.5-0.6-0.8-1.3-0.8-2.3V11
		c0-0.9,0.3-1.7,0.8-2.3s1.2-0.9,2-0.9s1.5,0.3,1.9,0.8c0.5,0.5,0.7,1.2,0.7,2.1v0.8h-4l0,0c0,0.5,0.2,0.9,0.5,1.3
		c0.3,0.3,0.7,0.5,1.1,0.5s0.7,0,1-0.1s0.5-0.2,0.8-0.4L358.4,13.6L358.4,13.6z M357.1,10.3c0-0.4-0.1-0.7-0.3-1s-0.5-0.4-0.9-0.4
		S355.2,9,355,9.3c-0.2,0.3-0.4,0.6-0.4,1.1l0,0h2.5L357.1,10.3L357.1,10.3z"/>
	<path class="st1" d="M361.1,14.2h-1.4V7.8h1.3l0.1,0.9c0.3-0.7,0.9-1,1.5-1c0.2,0,0.3,0,0.4,0.1l-0.2,1.3h-0.6
		c-0.5,0-0.9,0.2-1.1,0.7L361.1,14.2L361.1,14.2z"/>
	<path class="st1" d="M368.9,13.6c-0.6,0.5-1.3,0.8-2.3,0.8c-0.9,0-1.7-0.3-2.2-0.9c-0.5-0.6-0.8-1.3-0.8-2.3V11
		c0-0.9,0.3-1.7,0.8-2.3s1.2-0.9,2-0.9s1.5,0.3,1.9,0.8c0.5,0.5,0.7,1.2,0.7,2.1v0.8h-4l0,0c0,0.5,0.2,0.9,0.5,1.3
		c0.3,0.3,0.7,0.5,1.1,0.5s0.7,0,1-0.1s0.5-0.2,0.8-0.4L368.9,13.6L368.9,13.6z M367.7,10.3c0-0.4-0.1-0.7-0.3-1s-0.5-0.4-0.9-0.4
		s-0.7,0.1-0.9,0.4c-0.2,0.3-0.4,0.6-0.4,1.1l0,0h2.5L367.7,10.3L367.7,10.3z"/>
	<path class="st1" d="M370,11.3v-0.1c0-1,0.2-1.9,0.7-2.5c0.4-0.6,1-0.9,1.8-0.9c0.7,0,1.2,0.3,1.6,0.8V5h1.4v9.2h-1.2l-0.1-0.8
		c-0.4,0.6-1,0.9-1.8,0.9s-1.4-0.3-1.8-0.8C370.2,13,370,12.2,370,11.3z M371.4,11.1v0.1c0,0.6,0.1,1.1,0.4,1.4
		c0.2,0.3,0.6,0.5,1.1,0.5c0.6,0,1-0.3,1.3-0.8V9.7c-0.3-0.5-0.7-0.8-1.3-0.8c-0.5,0-0.8,0.2-1.1,0.6
		C371.5,9.9,371.4,10.5,371.4,11.1z"/>
	<path class="st1" d="M386.1,11.1v0.1c0,0.9-0.2,1.7-0.7,2.3s-1,0.8-1.8,0.8s-1.4-0.3-1.8-1l-0.1,0.8h-1.2V5h1.4v3.5
		c0.4-0.6,1-0.8,1.7-0.8c0.8,0,1.4,0.3,1.8,0.9C385.9,9.3,386.1,10.1,386.1,11.1z M383.2,8.9c-0.6,0-1,0.3-1.3,0.8v2.7
		c0.3,0.5,0.7,0.8,1.3,0.8c0.5,0,0.8-0.2,1.1-0.5c0.2-0.3,0.3-0.8,0.3-1.4v-0.1c0-0.7-0.1-1.2-0.4-1.6
		C384.1,9.1,383.7,8.9,383.2,8.9z"/>
	<path class="st1" d="M387.9,17.1c-0.2,0-0.4,0-0.8-0.1l0.2-1.1c0.3,0,0.4,0,0.4,0c0.4,0,0.8-0.3,1-0.9l0.2-0.6l-2.3-6.3h1.6
		l1.2,3.8l0.1,0.6l0,0l1.4-4.5h1.6l-2.6,7.3c-0.2,0.5-0.4,0.9-0.8,1.2S388.5,17.1,387.9,17.1z"/>
	<path class="st1" d="M400.3,14.4c-1,0-1.9-0.3-2.6-1s-1-1.5-1-2.5V9.1c0-1,0.3-1.9,0.9-2.5c0.6-0.7,1.4-1,2.4-1s1.8,0.2,2.3,0.7
		s0.9,1.1,0.9,2l0,0H402c0-0.5-0.2-0.9-0.5-1.2c-0.3-0.3-0.8-0.4-1.3-0.4s-1.1,0.2-1.4,0.7c-0.4,0.4-0.5,1-0.5,1.7v1.8
		c0,0.7,0.2,1.3,0.6,1.7s0.9,0.7,1.5,0.7c0.8,0,1.4-0.2,1.7-0.5V11h-1.7V9.9h3.1v3.2c-0.3,0.4-0.7,0.7-1.2,0.9
		C401.7,14.2,401.1,14.4,400.3,14.4z"/>
	<path class="st1" d="M410.4,9.2v1.1h-3.8V13h4.4v1.1h-5.8V5.6h5.8v1.1h-4.3v2.4L410.4,9.2L410.4,9.2z"/>
	<path class="st1" d="M418.9,5.6v8.6h-1.4L413.7,8l0,0v6.3h-1.4V5.6h1.4l3.8,6.3l0,0V5.6H418.9z"/>
	<path class="st1" d="M426,9.2v1.1h-3.8V13h4.4v1.1h-5.8V5.6h5.8v1.1h-4.3v2.4L426,9.2L426,9.2z"/>
	<path class="st1" d="M432,12.9c0.3-0.2,0.4-0.5,0.4-0.9s-0.1-0.7-0.4-0.9s-0.7-0.4-1.4-0.6c-1-0.3-1.8-0.6-2.2-1s-0.7-1-0.7-1.6
		s0.3-1.2,0.9-1.7s1.3-0.7,2.2-0.7s1.7,0.2,2.2,0.7s0.9,1.1,0.8,1.8l0,0h-1.4c0-0.5-0.2-0.8-0.5-1.1s-0.7-0.4-1.2-0.4
		s-0.9,0.1-1.2,0.3c-0.3,0.2-0.4,0.5-0.4,0.9c0,0.3,0.2,0.6,0.5,0.8s0.8,0.4,1.5,0.6c0.9,0.3,1.7,0.6,2.1,1c0.5,0.4,0.7,1,0.7,1.7
		s-0.3,1.2-0.9,1.7c-0.6,0.4-1.3,0.6-2.3,0.6c-0.5,0-0.9-0.1-1.3-0.2c-0.4-0.1-0.8-0.3-1.1-0.5s-0.6-0.5-0.7-0.8
		c-0.2-0.3-0.3-0.7-0.3-1.1l0,0h1.4c0,0.5,0.2,0.9,0.5,1.2s0.8,0.4,1.4,0.4l0,0C431.3,13.2,431.7,13.1,432,12.9z"/>
	<path class="st1" d="M436.9,5.6v8.6h-1.4V5.6H436.9z"/>
	<path class="st1" d="M443.1,12.9c0.3-0.2,0.4-0.5,0.4-0.9s-0.1-0.7-0.4-0.9s-0.7-0.4-1.4-0.6c-1-0.3-1.8-0.6-2.2-1s-0.7-1-0.7-1.6
		s0.3-1.2,0.9-1.7s1.3-0.7,2.2-0.7s1.7,0.2,2.2,0.7s0.9,1.1,0.8,1.8l0,0h-1.4c0-0.5-0.2-0.8-0.5-1.1s-0.7-0.4-1.2-0.4
		s-0.9,0.1-1.2,0.3c-0.3,0.2-0.4,0.5-0.4,0.9c0,0.3,0.2,0.6,0.5,0.8s0.8,0.4,1.5,0.6c0.9,0.3,1.7,0.6,2.1,1c0.5,0.4,0.7,1,0.7,1.7
		s-0.3,1.2-0.9,1.7c-0.6,0.4-1.3,0.6-2.3,0.6c-0.5,0-0.9-0.1-1.3-0.2c-0.4-0.1-0.8-0.3-1.1-0.5s-0.6-0.5-0.7-0.8
		c-0.2-0.3-0.3-0.7-0.3-1.1l0,0h1.4c0,0.5,0.2,0.9,0.5,1.2s0.8,0.4,1.4,0.4l0,0C442.4,13.2,442.8,13.1,443.1,12.9z"/>
</g>
</svg>
